<?xml version="1.0" encoding="utf-8"?>
<!-- Generator: Adobe Illustrator 25.0.1, SVG Export Plug-In . SVG Version: 6.00 Build 0)  -->
<svg version="1.1" id="Layer_1" xmlns="http://www.w3.org/2000/svg" xmlns:xlink="http://www.w3.org/1999/xlink" x="0px" y="0px"
	 viewBox="0 0 860 350" style="enable-background:new 0 0 860 350;" xml:space="preserve">
<style type="text/css">
	.st0{fill:#D31872;}
	.st1{fill:#FFFFFF;}
</style>
<path class="st0" d="M354.55,14.65c1.39,0.4,2.79,0.79,4.18,1.2c11.17,3.32,16.88,13.54,14.67,26.24
	c-1.72,9.87-11.65,17.18-22.49,16.56c-11.63-0.66-20.28-8.25-21.11-18.51c-1.09-13.41,4.88-21.98,17.24-24.78
	c0.58-0.13,1.1-0.47,1.65-0.71C350.64,14.65,352.6,14.65,354.55,14.65z"/>
<path class="st1" d="M548.64,152.69c-4.37,12.27-8.75,24.53-13.12,36.81c-7.83,22-15.7,43.98-23.4,66.01
	c-1.23,3.52-3.14,4.89-6.94,4.81c-9.64-0.2-19.29-0.22-28.92,0.01c-4.07,0.1-6.09-1.33-7.46-5.13
	c-12.09-33.57-24.36-67.07-36.58-100.59c-0.28-0.77-0.59-1.52-1.49-2.28c0,1.21,0,2.41,0,3.62c0,32.68,0,65.37,0,98.05
	c0,5.26-1.01,6.26-6.4,6.26c-9.4,0.01-18.8,0.02-28.19,0c-4.69-0.01-5.8-1.1-5.81-5.7c-0.01-54.95-0.01-109.9,0-164.86
	c0-4.83,0.86-5.7,5.72-5.7c15.74-0.02,31.49,0.08,47.23-0.07c3.65-0.03,5.4,1.3,6.62,4.67c13.25,36.59,26.64,73.13,39.99,109.69
	c0.24,0.65,0.53,1.28,1.11,2.64c0.96-2.53,1.73-4.41,2.41-6.33c12.57-35.43,25.16-70.85,37.64-106.31c1.09-3.1,2.77-4.36,6.11-4.34
	c15.74,0.11,31.49,0.03,47.23,0.06c4.36,0.01,5.39,1.03,5.4,5.32c0.01,55.19,0.01,110.38,0,165.57c0,4.13-1.22,5.34-5.44,5.36
	c-9.64,0.04-19.28,0.03-28.92,0.01c-4.92-0.01-6.03-1.09-6.03-5.86c-0.01-32.56,0-65.13,0-97.69c0-1.31,0-2.62,0-3.92
	C549.13,152.75,548.88,152.72,548.64,152.69z M423.03,252.44c0-1.91,0-3.46,0-5c0-38.67,0-77.35,0-116.02c0-1.2-0.3-2.55,0.16-3.55
	c0.54-1.17,1.65-2.71,2.71-2.88c1.26-0.2,2.96,0.62,4.04,1.5c0.83,0.67,1.05,2.1,1.46,3.22c14.51,39.83,29.03,79.66,43.45,119.52
	c0.92,2.53,2.07,3.52,4.9,3.43c7.19-0.22,14.4-0.18,21.6-0.02c2.57,0.06,3.85-0.64,4.74-3.17c11.77-33.43,23.66-66.82,35.53-100.22
	c2.57-7.22,5.18-14.42,7.73-21.65c0.78-2.22,2.35-3.83,4.58-2.9c1.39,0.58,2.31,2.6,3.05,4.15c0.42,0.88,0.08,2.12,0.08,3.2
	c0,38.55,0,77.11,0,115.66c0,1.51,0,3.02,0,4.6c8.62,0,16.71,0,24.88,0c0-53.69,0-107.14,0-160.81c-13.56,0-26.85,0.09-40.14-0.07
	c-2.77-0.03-3.99,0.74-4.9,3.33c-10.88,30.95-21.89,61.86-32.87,92.78c-3.04,8.57-5.96,17.19-9.21,25.69
	c-0.52,1.36-2.48,3.02-3.77,3.03c-1.31,0.01-2.68-1.83-3.91-2.97c-0.4-0.37-0.45-1.09-0.66-1.65
	c-14.19-38.93-28.41-77.85-42.52-116.8c-0.92-2.55-2.08-3.46-4.89-3.41c-10.98,0.18-21.97,0.07-32.95,0.07c-2.64,0-5.29,0-7.99,0
	c0,53.89,0,107.34,0,160.91C406.42,252.44,414.44,252.44,423.03,252.44z"/>
<path class="st1" d="M202.33,233.46c0,4.43-0.14,8.86,0.05,13.28c0.12,2.8-1.07,4.36-3.5,5.64c-13.17,6.9-27.31,10.1-42.11,10.6
	c-19.79,0.66-38.96-2.06-56.58-11.54c-22.28-11.99-35.22-30.86-40.44-54.88c-4.43-20.38-3.75-40.71,3.37-60.49
	c7.75-21.52,22.24-37.36,43.73-46.16c28.78-11.79,58.12-11.84,87.48-1.82c8.09,2.76,8,3.03,8,11.57c0,7.42-0.3,14.86,0.1,22.26
	c0.29,5.32-3.82,6.67-7.66,4.53c-8.15-4.54-16.97-7.18-26.18-8.67c-11.74-1.91-23.35-1.37-34.73,2.06
	c-19.88,5.99-32.74,22.2-34,43.84c-0.48,8.27-0.21,16.82,1.37,24.94c4.2,21.7,21.11,35.71,43.65,38.07
	c17.02,1.78,32.67-1.81,47.5-9.78c1.28-0.69,2.55-1.44,3.91-1.92c3.67-1.28,5.99,0.3,6.04,4.12
	C202.37,223.88,202.32,228.67,202.33,233.46z M194.62,116.85c0.01-0.06,0.1-0.29,0.1-0.53c0.02-4.91-0.36-9.85,0.15-14.71
	c0.47-4.39-1.47-6.06-5.34-7.29c-24.72-7.84-49.5-8.06-73.98,0.3c-23.96,8.19-39.59,24.71-46.68,48.66
	c-5.49,18.57-5.54,37.35-0.52,55.98c5.53,20.52,17.58,36.32,37,46.25c13.93,7.12,28.94,9.71,44.49,9.95
	c14.58,0.22,28.67-1.91,41.9-8.17c1.16-0.55,2.81-1.74,2.85-2.68c0.25-6.53,0.13-13.07,0.13-19.59c-0.59-0.03-0.85-0.12-1.04-0.05
	c-0.79,0.31-1.57,0.64-2.34,1.01c-15.89,7.61-32.61,10.52-50.1,7.73c-23.33-3.72-39.63-16.04-46.53-38.69
	c-4.38-14.38-4.38-29.09-0.64-43.63c5.1-19.82,17.96-32.76,37.74-38.89c13.03-4.03,26.43-4.47,39.77-1.83
	C179.3,112.21,186.79,114.72,194.62,116.85z"/>
<path class="st1" d="M723.8,168.17c2.92,2.27,5.71,4.36,8.4,6.56c20.09,16.39,22.79,63.3-14.98,78.5c-13,5.23-26.59,6.85-40.42,6.98
	c-20.74,0.19-41.48,0.06-62.22,0.05c-5.2,0-6.24-1-6.24-6.06c-0.01-54.7-0.01-109.39,0-164.09c0-5.26,0.85-6.11,6.12-6.11
	c22.08-0.01,44.17-0.07,66.25,0.03c9.79,0.04,19.47,1.14,28.76,4.44c22.22,7.89,33.39,25.06,31.34,48.15
	C739.59,150.29,735.04,158.81,723.8,168.17z M616.2,252.51c21.52,0,42.62,0.04,63.72-0.02c9.93-0.03,19.72-1.25,29.14-4.39
	c12.52-4.17,22.91-11.03,27.2-24.01c5.84-17.65,2.98-40.85-21.25-51.5c-1.45-0.64-3.36-2.44-3.31-3.63c0.06-1.47,1.64-3.39,3.1-4.21
	c10.72-6.05,16.91-14.98,18.15-27.03c1.99-19.3-5.22-34.65-25.7-41.97c-8.47-3.03-17.27-4.16-26.21-4.19
	c-20.5-0.08-40.99-0.03-61.49-0.03c-1.06,0-2.12,0-3.35,0C616.2,145.32,616.2,198.75,616.2,252.51z"/>
<path class="st1" d="M257.14,224.45c17.24,0,33.95,0,50.66,0c5.49,0,10.98-0.02,16.48,0.01c4.38,0.02,5.48,1.06,5.49,5.24
	c0.03,8.5,0.04,17,0,25.5c-0.02,3.7-1.28,5.03-5,5.04c-34.3,0.03-68.59,0.03-102.89,0c-3.8,0-5-1.27-5-5
	c-0.01-55.43-0.01-110.87,0-166.3c0-3.87,1.02-4.91,4.98-4.93c10.01-0.05,20.02-0.05,30.02,0c4.34,0.02,5.26,1.01,5.27,5.39
	c0.01,43.46,0,86.92,0,130.38C257.14,221.19,257.14,222.61,257.14,224.45z M224.83,91.66c0,53.74,0,107.18,0,160.65
	c32.55,0,64.81,0,97.15,0c0-6.8,0-13.33,0-20.32c-1.64,0-3.07,0-4.5,0c-20.38,0-40.77,0-61.15,0c-6.33,0-6.89-0.55-6.89-6.77
	c0-42.98,0-85.97,0-128.95c0-1.5,0-2.99,0-4.61C240.97,91.66,233.07,91.66,224.83,91.66z"/>
<path class="st1" d="M333.43,171.62c0-27.04,0-54.09,0-81.13c0-5.66,0.83-6.5,6.49-6.5c9.51-0.01,19.03-0.03,28.54,0.01
	c4.4,0.02,5.48,1.02,5.48,5.28c0.02,55.16,0.02,110.33,0,165.49c0,4.32-1.24,5.47-5.72,5.48c-9.51,0.03-19.03,0.02-28.54,0
	c-5.17-0.01-6.25-1.05-6.25-6.07C333.43,226.66,333.43,199.14,333.43,171.62z M366.01,252.44c0-53.85,0-107.28,0-160.65
	c-8.37,0-16.47,0-24.49,0c0,53.7,0,107.13,0,160.65C349.81,252.44,357.82,252.44,366.01,252.44z"/>
<path class="st0" d="M802.05,229.47c-0.02,13.04-9.15,21.98-22.28,21.81c-12.95-0.16-21.96-9.21-21.89-21.97
	c0.08-12.71,9.28-21.86,22.04-21.92C792.82,207.34,802.07,216.56,802.05,229.47z"/>
<path class="st0" d="M382.3,319.93c8.55,3.55,13.26,1.37,12.39-5.75c-0.22-0.04-0.47-0.16-0.67-0.1c-3.88,1.14-7.83,1.72-10.9-1.53
	c-3.16-3.35-2.58-7.63-1.71-11.6c0.84-3.86,4.1-5.77,8.66-5.57c1.44,0.06,2.85,0.68,4.29,0.74c1.38,0.06,2.78-0.25,3.94-0.38
	c0,6.52,0.29,12.81-0.07,19.07c-0.51,9.13-5.92,10.57-13.63,8.96c-1.27-0.26-2.23-1.95-3.33-2.98
	C381.61,320.51,381.95,320.22,382.3,319.93z M396.03,305.09c-0.73-6.78-1.07-7.33-5.49-7.24c-2.93,0.06-5.16,1.28-6.04,4.25
	c-1.04,3.55-0.24,8.4,2.1,9.14c2.1,0.66,5.14,0.86,6.79-0.2C394.94,310.06,395.2,307.15,396.03,305.09z"/>
<path class="st0" d="M702.65,295.83c-2,6.29-3.72,12-5.69,17.61c-0.28,0.8-1.82,1.66-2.72,1.61c-0.89-0.05-2.17-1.06-2.49-1.92
	c-1.43-3.9-2.58-7.91-4.67-11.98c-1.15,3.63-2.14,7.32-3.54,10.85c-0.5,1.26-2.02,2.13-3.08,3.18c-0.97-1-2.4-1.84-2.82-3.03
	c-1.89-5.25-3.5-10.59-5.2-15.9c0.35-0.27,0.71-0.55,1.06-0.82c0.85,0.84,2.12,1.54,2.49,2.55c1.6,4.33,2.94,8.76,5.19,13.15
	c1.3-4.28,2.52-8.58,3.98-12.8c0.35-1.01,1.52-1.75,2.32-2.61c0.81,0.85,2,1.56,2.36,2.56c1.5,4.19,2.75,8.47,4.38,13.63
	c2.28-6.03,4.17-11.07,6.16-16.07C700.45,295.67,701.46,295.83,702.65,295.83z"/>
<path class="st0" d="M745.29,298.22c1.03-0.71,1.87-1.42,2.82-1.93c4.91-2.65,9.16-0.27,9.25,5.19c0.06,3.71,0.09,7.42-0.06,11.13
	c-0.03,0.81-0.91,1.58-1.4,2.38c-0.43-0.83-1.2-1.65-1.24-2.5c-0.15-3.34-0.04-6.7-0.08-10.05c-0.03-2.59-0.93-4.57-4.04-4.31
	c-2.74,0.23-5.04,1.14-5.05,4.45c-0.01,3.23,0.13,6.47-0.09,9.69c-0.06,0.97-1.09,1.88-1.67,2.82c-0.51-0.9-1.4-1.77-1.45-2.69
	c-0.18-3.34-0.1-6.7-0.06-10.05c0.03-2.48-0.68-4.37-3.63-4.23c-2.73,0.14-5.18,0.99-5.32,4.22c-0.15,3.34,0.06,6.71-0.13,10.05
	c-0.05,0.89-1.01,1.73-1.55,2.59c-0.42-0.86-1.18-1.72-1.2-2.59c-0.11-5.36-0.06-10.72-0.06-16.73c1.01,0.54,2.15,1.14,3.41,1.8
	C739.3,294.45,741.38,294.52,745.29,298.22z"/>
<path class="st0" d="M259.87,315.58c-1.68-0.87-2.74-1.41-4-2.07c-3.45,2.06-7.3,3.58-11.11,0.26c-3.03-2.64-3.76-9.16-1.75-13.46
	c1.98-4.24,4.33-5.07,13.43-4.47c0-2.25-0.11-4.48,0.07-6.69c0.06-0.7,0.88-1.33,1.36-2c0.48,0.66,1.36,1.31,1.38,1.98
	c0.11,6.09,0.03,12.19,0.1,18.28C259.37,309.88,259.65,312.33,259.87,315.58z M257.03,304.4c-0.68-1.99-0.77-4.78-2.18-5.8
	c-2.81-2.04-7.16-0.36-8.66,2.62c-1.89,3.76-0.98,9.65,1.91,11.04c1.08,0.52,2.62,0.61,3.82,0.33
	C255.67,311.7,256.42,310.21,257.03,304.4z"/>
<path class="st0" d="M769.08,314.75c0,2.55,0.12,4.77-0.06,6.96c-0.07,0.82-0.87,1.58-1.34,2.37c-0.49-0.76-1.39-1.52-1.41-2.29
	c-0.13-5.49-0.02-10.99-0.09-16.48c-0.04-3.07-0.27-6.13-0.46-9.95c1.53,0.77,2.64,1.33,3.9,1.96c4.52-2.55,8.29-2.63,11.07-0.08
	c2.95,2.71,3.94,9.23,1.88,13.44C779.82,316.25,774.91,316.09,769.08,314.75z M769.1,306.25c0,1.07,0.09,2.15-0.02,3.21
	c-0.23,2.32,1.02,3.2,3.15,3.43c3.33,0.37,6-0.4,7.37-3.76c1.44-3.51,0.65-8.73-1.82-10.21c-0.95-0.57-2.36-0.9-3.42-0.69
	C770.25,299.06,768.56,299.99,769.1,306.25z"/>
<path class="st0" d="M57.04,314.7c0,2.78,0.1,5.03-0.06,7.26c-0.05,0.73-0.77,1.42-1.18,2.12c-0.51-0.74-1.43-1.47-1.46-2.23
	c-0.14-4.41-0.08-8.82-0.08-13.23c0-4.14,0-8.27,0-12.9c0.92,0.4,2.04,0.88,3.45,1.5c3.36-1.91,7.23-3.18,10.94,0.11
	c3.25,2.89,3.99,9.39,1.67,13.69C67.46,316.33,62.68,316.05,57.04,314.7z M57.05,306.17c0,6.37,0.23,6.66,4.48,6.8
	c3.48,0.11,5.43-1.59,6.36-4.71c1.07-3.56,0.03-8.21-2.34-9.48c-0.89-0.48-2.1-0.64-3.13-0.58
	C58.45,298.45,57.05,300.61,57.05,306.17z"/>
<path class="st0" d="M494.97,306.36c0.9,6.93,4.67,8.09,13.6,4.35c-0.68,1.49-0.85,2.71-1.57,3.31c-2.78,2.32-8.86,2.05-11.97-0.35
	c-3.54-2.73-4.72-8.95-2.56-13.49c1.82-3.82,5.61-5.54,10.02-4.53c4.26,0.97,6.73,5.14,6.01,10.72
	C504.12,306.36,499.68,306.36,494.97,306.36z M495.14,303.86c3.41,0,6.8,0,10.23,0c-0.45-4.18-2.15-6.17-5.03-6.19
	C497.36,297.64,495.3,300.03,495.14,303.86z"/>
<path class="st0" d="M658.38,315.56c-5.63-0.03-9.22-4.04-9.17-10.22c0.05-6.15,3.74-10.07,9.43-10c5.67,0.07,9.22,4.05,9.14,10.25
	C667.7,311.83,664.14,315.6,658.38,315.56z M651.81,305.38c1.32,2.49,2.01,5.07,3.69,6.63c2.01,1.87,4.78,1.49,6.86-0.56
	c2.73-2.68,2.74-9.16,0.04-11.9c-2.04-2.08-4.73-2.64-6.81-0.69C653.92,300.43,653.16,302.96,651.81,305.38z"/>
<path class="st0" d="M790.73,299.53c0.44-1.11,0.64-2.47,1.06-2.54c3.27-0.53,6.68-1.46,9.84-0.97c3.02,0.47,3.98,3.51,3.96,6.51
	c-0.02,4.02-0.01,8.04-0.01,12.75c-1.09-0.55-2.23-1.12-3.18-1.6c-2.46,0.6-5.06,1.55-7.74,1.78c-2.53,0.22-4.45-1.26-4.91-3.86
	c-0.46-2.64-0.12-5.34,2.82-6.28c2.93-0.94,6.1-1.19,9.32-1.78C803.32,298.23,800.59,297.05,790.73,299.53z M801.95,305.97
	c-2.29,0.3-4.75,0.26-6.89,1.06c-1.01,0.38-2.07,2.49-1.86,3.58c0.19,0.98,2.05,2.22,3.26,2.31
	C800.55,313.25,802.77,310.52,801.95,305.97z"/>
<path class="st0" d="M215.99,315.3c-1.08-0.57-2.17-1.14-3.25-1.7c-2.17,0.59-4.62,1.58-7.16,1.88c-2.67,0.32-4.8-1-5.38-3.77
	c-0.63-2.99,0.1-5.69,3.38-6.63c2.75-0.79,5.68-0.98,9.33-1.56c-0.42-1.32-0.61-3.97-1.44-4.19c-2.95-0.75-6.12-0.67-9.65-0.94
	c0.1-0.17,0.4-1.41,1.19-1.87c6.46-3.79,12.95-0.29,12.98,6.91C216,307.1,215.99,310.78,215.99,315.3z M212.39,305.91
	c-2.44,0.34-4.81,0.3-6.84,1.1c-1.04,0.41-2.14,2.44-1.94,3.53c0.17,0.98,2,2.27,3.2,2.39C210.84,313.31,213.1,310.61,212.39,305.91
	z"/>
<path class="st0" d="M290.71,315.56c-5.74,0.01-9.19-3.77-9.21-10.07c-0.01-6.29,3.47-10.14,9.17-10.15
	c5.74-0.01,9.18,3.78,9.19,10.11C299.87,311.8,296.47,315.55,290.71,315.56z M290.59,297.79c-3.55,0.11-5.94,3.49-5.74,8.16
	c0.18,4.48,2.43,7.13,6,7.05c3.52-0.07,5.91-3.23,5.82-7.68C296.58,300.93,293.97,297.68,290.59,297.79z"/>
<path class="st0" d="M21.54,306.3c-4.43,0-8.9,0-13.31,0c-0.6,6.36,4.08,8.13,12.81,4.59c-0.65,1.49-0.8,2.68-1.49,3.25
	c-2.69,2.22-8.66,1.9-11.65-0.44c-3.56-2.78-4.73-8.82-2.61-13.47c1.65-3.63,5.04-5.37,9.26-4.75
	C19.24,296.16,21.84,300.03,21.54,306.3z M18.43,303.91c-1.07-4.73-2.96-6.56-5.88-6.19c-2.97,0.37-4.64,2.69-4.4,6.19
	C11.47,303.91,14.78,303.91,18.43,303.91z"/>
<path class="st0" d="M100.35,306.29c1.34,7.02,5.02,8.21,13.49,4.52c-0.62,1.48-0.75,2.69-1.43,3.27c-2.59,2.21-8.57,1.96-11.68-0.3
	c-3.48-2.53-4.79-8-3.06-12.75c1.41-3.86,4.59-5.92,8.72-5.66c5.32,0.34,8.3,4.44,7.51,10.92
	C109.53,306.29,105.1,306.29,100.35,306.29z M110.65,303.99c0.11-3.75-1.62-6.09-4.51-6.3c-3.05-0.22-5.31,2.28-5.5,6.3
	C103.99,303.99,107.32,303.99,110.65,303.99z"/>
<path class="st0" d="M409.34,297.41c2.51-0.77,4.51-1.7,6.6-1.96c3.59-0.44,5.78,1.18,6.03,4.63c0.32,4.28,0.21,8.6,0.12,12.89
	c-0.02,0.68-0.96,1.35-1.48,2.02c-0.47-0.67-1.32-1.32-1.35-2.01c-0.15-3.34-0.06-6.69-0.08-10.04c-0.01-2.6-0.48-4.85-3.89-4.86
	c-3.55-0.01-5.89,2-5.94,5.22c-0.04,3.11,0.08,6.22-0.08,9.32c-0.04,0.81-0.89,1.57-1.37,2.36c-0.44-0.72-1.25-1.43-1.26-2.15
	c-0.09-7.89-0.09-15.78,0-23.66c0.01-0.67,0.88-1.33,1.34-2c0.45,0.67,1.25,1.33,1.29,2.02
	C409.43,291.88,409.34,294.59,409.34,297.41z"/>
<path class="st0" d="M350.01,297.2c2.7-0.73,4.74-1.6,6.84-1.77c3.51-0.29,5.53,1.58,5.66,5.05c0.16,4.06,0.13,8.14-0.01,12.2
	c-0.03,0.78-0.96,1.53-1.48,2.29c-0.4-0.74-1.13-1.47-1.16-2.22c-0.13-3.35-0.03-6.7-0.08-10.05c-0.04-2.68-0.85-4.74-4.19-4.63
	c-3.29,0.1-5.51,1.93-5.57,4.79c-0.06,3.35,0.06,6.71-0.09,10.05c-0.03,0.71-0.86,1.38-1.32,2.07c-0.54-0.65-1.54-1.29-1.55-1.95
	c-0.11-8.02-0.11-16.04,0-24.06c0.01-0.62,1.05-1.22,1.61-1.83c0.44,0.69,1.22,1.36,1.26,2.07
	C350.11,291.84,350.01,294.46,350.01,297.2z"/>
<path class="st0" d="M584.65,295.31c0.89,0.91,2.13,1.67,2.6,2.76c1.85,4.24,3.45,8.59,5.36,13.44c3.51-5.38,3.58-11.99,7.74-16.21
	c0.59,0.31,1.17,0.63,1.76,0.94c-2.61,6.51-5.21,13.02-7.82,19.53c-0.89,2.22-1.64,4.53-2.78,6.62c-0.49,0.91-1.82,1.38-3.01,1.7
	c4.25-7.39,0.86-13.76-1.94-20.19c-1.09-2.51-2.03-5.09-3.04-7.64C583.91,295.95,584.28,295.63,584.65,295.31z"/>
<path class="st0" d="M28.01,314.5c1.94-2.54,3.8-5.15,5.84-7.61c1.23-1.49,1.18-2.63-0.07-4.07c-1.8-2.08-3.4-4.32-5.39-6.87
	c5.62-1.05,5.75,4.6,9.23,6.17c3.03-1.25,3.13-6.72,8.65-6.4c-2.02,2.64-3.56,4.88-5.34,6.91c-1.43,1.64-1.55,2.92-0.05,4.62
	c2.04,2.31,3.8,4.85,6.11,7.84c-6.28,0.29-6.36-5.74-10.06-7.42C33.63,309.38,33.36,314.84,28.01,314.5z"/>
<path class="st0" d="M516.15,295.31c1.27,0.81,2.39,1.51,3.22,2.04c2.34-0.68,4.57-1.7,6.88-1.91c3.32-0.3,5.32,1.59,5.45,4.84
	c0.17,4.17,0.12,8.35,0.01,12.53c-0.02,0.73-0.8,1.45-1.23,2.17c-0.49-0.77-1.36-1.53-1.4-2.32c-0.16-3.33-0.04-6.68-0.09-10.02
	c-0.04-2.68-0.87-4.71-4.2-4.57c-3.28,0.14-5.49,1.95-5.55,4.81c-0.06,2.98,0.1,5.97-0.08,8.95c-0.07,1.08-0.84,2.11-1.3,3.17
	c-0.57-1.11-1.59-2.21-1.62-3.34C516.05,306.53,516.15,301.41,516.15,295.31z"/>
<path class="st0" d="M452.84,295.51c1.1,0.63,2.24,1.28,3.66,2.1c0.39-0.23,1.19-0.76,2.04-1.2c5.72-2.93,10.01-0.44,10.07,5.85
	c0.03,3.47,0.09,6.94-0.06,10.4c-0.04,0.8-0.9,1.56-1.39,2.33c-0.51-0.81-1.4-1.59-1.45-2.42c-0.19-3.1-0.04-6.21-0.14-9.32
	c-0.08-2.56-0.13-5.22-3.92-5.18c-3.62,0.04-5.68,1.89-5.73,5.35c-0.05,2.99,0.11,5.98-0.11,8.96c-0.07,0.9-1.06,1.74-1.63,2.61
	c-0.44-0.83-1.25-1.64-1.27-2.48C452.78,307.06,452.84,301.6,452.84,295.51z"/>
<path class="st0" d="M134.83,298.79c-2.78-0.21-5.14-0.57-7.48-0.47c-0.78,0.03-2,1.19-2.11,1.95c-0.11,0.78,0.7,2.09,1.47,2.5
	c1.68,0.9,3.84,1.05,5.36,2.12c1.61,1.13,3.75,2.99,3.73,4.51c-0.03,1.81-1.8,4.76-3.35,5.14c-2.95,0.73-6.3,0.12-9.44-0.27
	c-0.63-0.08-1.06-1.66-1.84-2.98c3.06,0.68,5.37,1.58,7.66,1.54c1.34-0.02,2.65-1.55,3.97-2.4c-0.98-1.18-1.75-2.68-3-3.45
	c-1.5-0.93-3.47-1.08-5.1-1.84c-3.29-1.54-3.91-5.17-1.46-7.75c2.12-2.23,8.22-2.88,10.56-0.96
	C134.43,296.94,134.54,298.07,134.83,298.79z"/>
<path class="st0" d="M142.56,311.32c3.04,0.68,5.28,1.57,7.48,1.52c1.35-0.03,2.66-1.53,3.98-2.37c-0.97-1.18-1.72-2.7-2.96-3.47
	c-1.49-0.93-3.47-1.08-5.1-1.84c-3.16-1.46-3.9-4.91-1.75-7.48c2.06-2.46,8.28-3.28,10.8-1.27c0.65,0.52,0.77,1.66,1.15,2.53
	c-2.61-0.34-4.74-0.9-6.83-0.78c-1.03,0.06-2.65,1.25-2.78,2.11c-0.13,0.85,1.07,2.27,2.06,2.83c1.54,0.88,3.6,0.95,5.05,1.92
	c1.47,0.98,3.33,2.58,3.43,4.02c0.11,1.67-1.11,3.85-2.45,5.11c-2.28,2.14-8.25,1.97-10.64,0.01
	C143.33,313.61,143.13,312.5,142.56,311.32z"/>
<path class="st0" d="M539.01,311.51c2.8,0.56,5.05,1.42,7.25,1.3c1.34-0.07,2.59-1.65,3.89-2.55c-0.95-1.1-1.71-2.53-2.91-3.23
	c-1.53-0.89-3.49-1.05-5.13-1.79c-3.82-1.74-4.18-6.48-0.62-8.65c3.02-1.84,6.31-1.64,9.43-0.21c0.72,0.33,1.01,1.55,1.62,2.58
	c-2.86-0.33-5.17-0.81-7.47-0.75c-0.93,0.02-2.61,1.3-2.56,1.9c0.08,1.04,1.02,2.37,1.99,2.92c1.65,0.94,3.65,1.26,5.42,2.03
	c3.05,1.32,4.12,4.25,2.74,7.08c-1.82,3.71-10.63,4.83-13.25,1.61C539,313.23,539.14,312.28,539.01,311.51z"/>
<path class="st0" d="M827.89,311.71c-0.76,0.97-1.37,2.55-2.32,2.78c-2.4,0.59-5.08,1.19-7.41,0.69c-5.53-1.17-8.12-8.05-5.73-14.15
	c1.92-4.9,7.83-7.33,12.68-5.03c0.93,0.44,1.46,1.72,1.92,2.91c-4.2-0.54-8.41-2.66-11.15,2.23c-1.65,2.95-1.16,8.08,1.01,10.11
	c3.36,3.15,6.72,1.42,10.05-0.24C827.25,311.25,827.57,311.48,827.89,311.71z"/>
<path class="st0" d="M837.77,289.37c0.07,1.18,0.24,2.02,0.15,2.83c-0.28,2.57,0.61,3.83,3.46,3.58c0.7-0.06,1.49,0.7,2.23,1.08
	c-0.76,0.49-1.56,1.43-2.28,1.38c-2.91-0.23-3.6,1.16-3.41,3.65c0.14,1.91,0.01,3.83,0.03,5.74c0.06,4.75,0.65,5.33,5.41,5.39
	c-0.24,2.61-3.57,3.79-5.97,1.75c-1.19-1.01-1.99-2.98-2.13-4.58c-0.31-3.68-0.1-7.4-0.1-10.73c-1.44-1.04-2.55-1.85-3.66-2.65
	c1.05-0.59,2.11-1.18,3.51-1.96C836.08,293.51,833.6,290.12,837.77,289.37z"/>
<path class="st0" d="M191.59,299.24c-3.48-0.95-7.1-2.69-9.98,1.08c-2.23,2.92-2.08,8.21,0.32,10.75c3.21,3.38,6.65,1.69,10.8,0.56
	c-0.6,0.99-0.95,2.35-1.83,2.9c-4.84,3.05-11.73,0.44-13.41-4.96c-1.33-4.27-0.95-8.34,2.2-11.74c2.7-2.91,6.31-2.92,9.83-1.97
	c1.1,0.3,1.88,1.72,2.81,2.63C192.1,298.73,191.84,298.98,191.59,299.24z"/>
<path class="st0" d="M574.56,298.55c0,3.33-0.04,6.3,0.01,9.27c0.08,4.68,0.51,5.08,5.78,5.28c-0.53,0.93-0.97,2.22-1.31,2.19
	c-1.97-0.14-4.24-0.1-5.77-1.08c-1.09-0.7-1.42-2.87-1.67-4.45c-0.27-1.75-0.06-3.58-0.06-5.37c0-1.78,0-3.57,0-5.03
	c-1.41-0.97-2.53-1.74-3.65-2.51c1.04-0.57,2.08-1.14,3.56-1.95c1.01-1.29-1.51-4.67,2.72-5.52c0.23,1.99,0.44,3.91,0.69,6.09
	c1.14,0.09,2.22,0.05,3.23,0.29c0.68,0.16,1.26,0.73,1.89,1.11c-0.65,0.48-1.23,1.16-1.96,1.39
	C577.15,298.54,576.14,298.44,574.56,298.55z"/>
<path class="st0" d="M486.6,314.44c-1.18,0.37-2.59,1.34-3.48,1c-1.71-0.66-4.01-1.78-4.47-3.21c-0.82-2.52-0.48-5.41-0.57-8.15
	c-0.06-1.77-0.01-3.54-0.01-4.64c-1.71-1.05-2.8-1.72-3.89-2.38c1.06-0.69,2.12-1.37,4-2.6c0.67-0.95-1.48-4.51,2.7-5.1
	c0.09,1.03,0.32,1.95,0.23,2.83c-0.28,2.52,0.48,3.89,3.37,3.6c0.6-0.06,1.28,0.69,1.93,1.07c-0.65,0.49-1.35,1.44-1.96,1.38
	c-2.94-0.26-3.56,1.18-3.34,3.65c0.14,1.54,0.03,3.1,0.03,4.66C481.13,312.25,481.13,312.25,486.6,314.44z"/>
<path class="st0" d="M642.26,301.14c0,3.83,0.08,7.66-0.07,11.49c-0.03,0.8-0.91,1.57-1.39,2.36c-0.52-0.79-1.49-1.58-1.51-2.38
	c-0.11-7.78-0.11-15.56,0.01-23.34c0.01-0.71,1.11-1.41,1.7-2.11c0.42,0.71,1.17,1.41,1.2,2.13
	C642.32,293.24,642.26,297.19,642.26,301.14z"/>
<path class="st0" d="M226.31,295.36c1.08,0.85,2.16,1.71,3.3,2.61c1-0.66,2.2-1.64,3.56-2.26c0.45-0.2,1.55,0.35,1.94,0.86
	c0.23,0.3-0.27,1.7-0.59,1.75c-7.38,1.22-5.1,6.84-5.4,11.27c-0.08,1.19,0.12,2.42-0.08,3.58c-0.11,0.66-0.77,1.22-1.19,1.83
	c-0.56-0.62-1.58-1.22-1.62-1.86c-0.18-3.46-0.07-6.94-0.16-10.41c-0.06-2.15-0.33-4.29-0.5-6.43
	C225.82,295.98,226.06,295.67,226.31,295.36z"/>
<path class="st0" d="M81.38,295.2c1.21,1.06,2.18,1.92,3.37,2.98c0.71-0.62,1.55-1.68,2.66-2.16c0.71-0.31,1.81,0.25,2.74,0.43
	c-0.4,0.75-0.7,2.08-1.21,2.16c-4.75,0.78-5.09,3.99-4.82,7.74c0.15,2.14,0.13,4.3-0.03,6.44c-0.06,0.76-0.76,1.47-1.17,2.2
	c-0.51-0.76-1.44-1.52-1.46-2.29C81.32,307.23,81.38,301.76,81.38,295.2z"/>
<path class="st0" d="M719.86,295.45c0.62,0.75,1.77,1.49,1.79,2.26c0.15,5.13,0.13,10.27-0.01,15.41c-0.02,0.63-1.05,1.24-1.62,1.86
	c-0.41-0.6-1.18-1.2-1.19-1.81c-0.09-5.71-0.05-11.42-0.05-17.13C719.14,295.84,719.5,295.65,719.86,295.45z"/>
<path class="st0" d="M562.52,305.57c0,2.5,0.1,5.01-0.08,7.5c-0.05,0.67-0.96,1.28-1.48,1.91c-0.43-0.6-1.21-1.2-1.23-1.81
	c-0.1-5.24-0.1-10.48,0-15.72c0.01-0.56,0.85-1.11,1.31-1.66c0.49,0.64,1.37,1.26,1.41,1.93
	C562.63,300.33,562.53,302.95,562.52,305.57z"/>
<path class="st0" d="M444.44,296.3c0,5.49,0.05,10.97-0.05,16.46c-0.01,0.75-0.74,1.49-1.13,2.23c-0.59-0.72-1.68-1.42-1.7-2.16
	c-0.15-5.01-0.16-10.04,0-15.05c0.03-0.8,1.13-1.57,1.73-2.35C443.68,295.72,444.06,296.01,444.44,296.3z"/>
<path class="st0" d="M374.13,296.3c0,5.49,0.05,10.97-0.05,16.46c-0.01,0.75-0.74,1.48-1.14,2.23c-0.59-0.72-1.67-1.43-1.69-2.16
	c-0.15-5.01-0.16-10.04,0-15.05c0.03-0.8,1.13-1.56,1.73-2.34C373.36,295.72,373.75,296.01,374.13,296.3z"/>
<path class="st0" d="M272.47,305.63c0,2.5,0.08,5.01-0.05,7.5c-0.04,0.64-0.77,1.24-1.19,1.85c-0.53-0.62-1.51-1.23-1.52-1.87
	c-0.12-5.24-0.11-10.48,0-15.72c0.01-0.55,0.88-1.08,1.36-1.61c0.47,0.54,1.31,1.06,1.34,1.63
	C272.54,300.15,272.46,302.89,272.47,305.63z"/>
<path class="st0" d="M310,307.8c1.6,2.15,3.34,3.53,3.11,4.43c-0.32,1.29-2.08,2.23-3.23,3.32c-1.01-1.08-2.7-2.08-2.84-3.26
	C306.92,311.22,308.49,309.96,310,307.8z"/>
<path class="st0" d="M608.6,307.82c1.54,2.1,3.12,3.32,3.02,4.39c-0.11,1.18-1.77,2.23-2.75,3.33c-1.19-1.06-3-1.95-3.36-3.24
	C605.26,311.43,607.02,310,608.6,307.82z"/>
<path class="st0" d="M852.13,307.79c1.54,2.2,3.24,3.62,2.99,4.52c-0.36,1.28-2.15,2.17-3.32,3.23c-0.98-1.11-2.63-2.16-2.74-3.34
	C848.96,311.13,850.56,309.92,852.13,307.79z"/>
<path class="st0" d="M375.5,288.67c-1.22,0.89-1.99,1.87-2.77,1.89c-0.68,0.01-2.06-1.26-1.95-1.63c0.27-0.9,1.11-2.02,1.94-2.24
	C373.3,286.54,374.25,287.73,375.5,288.67z"/>
<path class="st0" d="M273.96,288.87c-1.44,0.86-2.36,1.83-3.07,1.7c-0.74-0.13-1.82-1.38-1.76-2.05c0.07-0.72,1.28-1.83,2.01-1.85
	C271.88,286.66,272.65,287.78,273.96,288.87z"/>
<path class="st0" d="M720.32,285.77c0.89,1.3,1.89,2.12,1.85,2.88c-0.04,0.72-1.28,1.99-1.81,1.91c-0.83-0.13-2.03-1.16-2.09-1.88
	C718.2,287.93,719.32,287.09,720.32,285.77z"/>
<path class="st0" d="M560.96,291.57c-0.88-1.44-1.88-2.35-1.74-3.04c0.15-0.77,1.34-1.34,2.07-2c0.63,0.75,1.69,1.48,1.74,2.27
	C563.08,289.5,561.99,290.27,560.96,291.57z"/>
<path class="st0" d="M445.82,288.74c-1.25,0.86-2.05,1.83-2.84,1.83c-0.68,0-2.02-1.33-1.9-1.7c0.29-0.89,1.17-1.99,2.01-2.17
	C443.69,286.57,444.6,287.77,445.82,288.74z"/>
<path class="st1" d="M641.05,205.91c0-6.93,0.06-13.87-0.03-20.8c-0.04-3.04,1.25-5.07,4.36-5.01c14.84,0.3,29.8-0.22,44.48,1.47
	c18.95,2.19,27.85,20.28,19.51,37.23c-4.09,8.31-11.79,11.38-20.28,11.99c-11.64,0.84-23.36,0.7-35.04,0.95
	c-2.44,0.05-4.88,0.02-7.31,0c-4.67-0.03-5.68-1.03-5.69-5.76C641.04,219.3,641.05,212.61,641.05,205.91z M649.05,223.93
	c11.77,0,23.09,0.21,34.39-0.11c4.06-0.11,8.37-0.88,12.03-2.49c2.84-1.25,5.66-3.89,7.09-6.62c2.56-4.91,2.42-10.47,0.57-15.71
	c-2.62-7.4-9.2-9.91-16.14-10.34c-12.38-0.78-24.81-0.62-37.22-0.84c-0.2,0-0.4,0.23-0.72,0.42
	C649.05,200.07,649.05,211.97,649.05,223.93z"/>
<path class="st1" d="M641.05,135.95c0-6.34,0.04-12.67-0.02-19.01c-0.02-2.82,1.08-4.88,4.1-4.83c14.73,0.24,29.49,0.07,44.15,1.2
	c10.44,0.8,15.87,7.26,16.92,17.16c1.86,17.48-6.78,28-24.92,29.07c-12.02,0.71-24.12,0.23-36.19,0.22c-3.18,0-4.07-2.05-4.06-4.8
	C641.07,148.62,641.05,142.29,641.05,135.95z M649.06,151.81c11.63,0,22.94,0.17,34.24-0.12c2.78-0.07,5.7-1.34,8.23-2.66
	c5.97-3.11,8.45-9.91,7.03-18.14c-1.14-6.6-3.63-9.68-11.11-10.28c-12.68-1-25.45-1.03-38.39-1.48
	C649.06,130.5,649.06,141.08,649.06,151.81z"/>
</svg>
