<?xml version="1.0" encoding="iso-8859-1"?>
<!-- Generator: Adobe Illustrator 24.3.0, SVG Export Plug-In . SVG Version: 6.00 Build 0)  -->
<svg version="1.1" id="Layer_1" xmlns="http://www.w3.org/2000/svg" xmlns:xlink="http://www.w3.org/1999/xlink" x="0px" y="0px"
	 viewBox="0 0 54 71" style="enable-background:new 0 0 54 71;" xml:space="preserve">
<g>
	<path d="M21.339,55.751C15.165,49.23,9.018,42.737,2.87,36.244c0.006-0.011,0.012-0.022,0.017-0.033
		c0.063,0.028,0.127,0.053,0.188,0.083c2.902,1.407,5.804,2.814,8.705,4.221c2.927,1.419,5.854,2.839,8.783,4.254
		c0.144,0.07,0.2,0.148,0.208,0.313c0.07,1.381,0.153,2.762,0.231,4.143c0.046,0.809,0.09,1.618,0.135,2.427
		c0.067,1.186,0.135,2.371,0.2,3.557C21.347,55.373,21.339,55.539,21.339,55.751z"/>
	<g>
		<path style="fill:#EC08D6;" d="M25.678,46.546c0.082,0.041,0.143,0.073,0.206,0.103c2.933,1.422,5.867,2.843,8.798,4.269
			c0.13,0.063,0.235,0.068,0.372,0.015c5.689-2.198,11.38-4.392,17.072-6.585c0.102-0.039,0.215-0.071,0.324-0.071
			c0.241,0,0.376,0.22,0.279,0.441c-0.039,0.089-0.093,0.172-0.142,0.257c-2.182,3.78-4.365,7.559-6.545,11.34
			c-0.054,0.094-0.088,0.202-0.115,0.307c-0.043,0.167-0.155,0.259-0.332,0.257c-0.607-0.008-1.215-0.021-1.822-0.021
			c-7.247-0.001-14.493-0.001-21.74-0.001c-0.07,0-0.141-0.01-0.209,0.002c-0.219,0.038-0.365-0.062-0.51-0.216
			c-3.936-4.163-7.876-8.323-11.815-12.483c-2.503-2.643-5.006-5.287-7.509-7.93c-0.207-0.218-0.415-0.434-0.62-0.655
			C1.187,35.381,1.2,35.217,1.4,35.041c0.057-0.05,0.11-0.107,0.157-0.167c5.286-6.81,10.571-13.62,15.856-20.431
			c0.544-0.701,1.084-1.404,1.625-2.108c0.068-0.089,0.153-0.135,0.262-0.155c0.852-0.151,1.704-0.306,2.556-0.459
			c1.457-0.261,2.914-0.52,4.371-0.781c1.354-0.242,2.707-0.484,4.061-0.726c1.134-0.203,2.268-0.405,3.402-0.607
			c1.457-0.26,2.914-0.52,4.37-0.78c0.268-0.048,0.536-0.097,0.804-0.145c0.055-0.01,0.11-0.021,0.166-0.023
			c0.175-0.006,0.308,0.082,0.329,0.255c0.015,0.123,0.077,0.205,0.146,0.291c1.008,1.251,2.017,2.502,3.025,3.753
			c3.281,4.068,6.561,8.135,9.842,12.203c0.009,0.011,0.017,0.022,0.026,0.033c0.169,0.212,0.194,0.341,0.093,0.487
			c-0.123,0.178-0.258,0.206-0.517,0.105c-0.572-0.222-1.145-0.445-1.717-0.669c-4.815-1.885-9.63-3.771-14.446-5.656
			c-0.071-0.028-0.142-0.054-0.24-0.092C32.272,28.431,28.978,37.479,25.678,46.546z M19.621,13.121c0,0.091-0.002,0.139,0,0.187
			c0.059,1.067,0.118,2.134,0.177,3.201c0.047,0.858,0.093,1.716,0.14,2.574c0.066,1.193,0.135,2.385,0.202,3.578
			c0.046,0.809,0.09,1.618,0.136,2.427c0.065,1.151,0.131,2.301,0.196,3.452c0.047,0.837,0.092,1.674,0.139,2.511
			c0.066,1.179,0.133,2.357,0.2,3.536c0.046,0.816,0.09,1.632,0.137,2.448c0.078,1.367,0.157,2.734,0.234,4.1
			c0.049,0.865,0.094,1.73,0.141,2.595c0.013,0.242,0.031,0.485,0.048,0.734c1.243,0.603,2.479,1.202,3.735,1.81
			c3.295-9.051,6.584-18.085,9.879-27.136C29.86,17.131,24.755,15.132,19.621,13.121z M18.992,13.517
			c-0.014-0.007-0.029-0.015-0.043-0.022c-5.596,7.211-11.192,14.422-16.793,21.64c0.058,0.032,0.099,0.058,0.142,0.079
			c6.124,2.968,12.249,5.935,18.374,8.902c0.005,0.002,0.014-0.002,0.02-0.005c0.005-0.002,0.009-0.008,0.021-0.017
			c-0.01-0.169-0.02-0.342-0.029-0.516c-0.047-0.858-0.093-1.716-0.141-2.574c-0.065-1.172-0.133-2.343-0.198-3.515
			c-0.046-0.823-0.091-1.646-0.138-2.469c-0.065-1.151-0.131-2.301-0.196-3.452c-0.047-0.837-0.091-1.674-0.139-2.511
			c-0.077-1.353-0.157-2.706-0.233-4.059c-0.063-1.13-0.122-2.26-0.185-3.39c-0.076-1.346-0.156-2.692-0.232-4.038
			c-0.064-1.13-0.122-2.26-0.185-3.39C19.025,13.96,19.007,13.738,18.992,13.517z M21.339,55.751c0-0.212,0.008-0.378-0.001-0.543
			c-0.065-1.186-0.133-2.371-0.2-3.557c-0.045-0.809-0.09-1.618-0.135-2.427c-0.078-1.381-0.161-2.761-0.231-4.143
			c-0.008-0.165-0.064-0.244-0.208-0.313c-2.929-1.415-5.856-2.835-8.783-4.254C8.88,39.107,5.978,37.7,3.076,36.294
			c-0.062-0.03-0.125-0.055-0.188-0.083c-0.006,0.011-0.012,0.022-0.017,0.033C9.018,42.737,15.165,49.23,21.339,55.751z
			 M39.107,9.721c-0.158,0.302-3.273,8.901-3.283,9.05c0.41,0.207,15.26,6.001,15.43,6.013C47.203,19.762,43.162,14.75,39.107,9.721
			z M20.262,12.648c-0.002,0.013-0.004,0.026-0.006,0.038c1.245,0.488,2.49,0.977,3.734,1.465c1.241,0.487,2.481,0.973,3.722,1.459
			c1.247,0.489,2.494,0.979,3.743,1.464c1.245,0.484,2.485,0.981,3.746,1.462c1.112-3.056,2.214-6.082,3.331-9.152
			C32.413,10.479,26.337,11.563,20.262,12.648z M51.704,45.239c-0.01-0.012-0.019-0.024-0.029-0.037
			c-5.327,2.053-10.654,4.105-15.98,6.158c0,0.015-0.001,0.031-0.001,0.046c3.236,1.57,6.471,3.139,9.724,4.717
			C47.518,52.486,49.611,48.862,51.704,45.239z M23.203,56.183c0.002,0.009,0.004,0.018,0.006,0.027c6.952,0,13.903,0,20.855,0
			c-0.043-0.054-0.093-0.085-0.146-0.111c-2.97-1.441-5.94-2.882-8.909-4.326c-0.125-0.061-0.228-0.064-0.356-0.015
			c-3.762,1.453-7.526,2.903-11.289,4.354C23.31,56.133,23.257,56.159,23.203,56.183z M34.058,51.315
			c-2.889-1.4-5.735-2.779-8.59-4.163c-0.026,0.059-0.044,0.095-0.058,0.133c-1.029,2.832-2.059,5.664-3.087,8.497
			c-0.002,0.005,0.002,0.013,0.005,0.018c0.004,0.006,0.01,0.01,0.025,0.023C26.235,54.329,30.124,52.831,34.058,51.315z
			 M21.947,54.808c0.016,0.003,0.032,0.006,0.048,0.008c0.962-2.643,1.925-5.287,2.893-7.946c-1.157-0.561-2.301-1.115-3.481-1.687
			C21.588,48.421,21.768,51.615,21.947,54.808z"/>
		<path d="M18.992,13.517c0.015,0.222,0.032,0.443,0.045,0.665c0.062,1.13,0.121,2.26,0.185,3.39
			c0.076,1.346,0.156,2.692,0.232,4.038c0.064,1.13,0.122,2.26,0.185,3.39c0.076,1.353,0.156,2.706,0.233,4.059
			c0.047,0.837,0.092,1.674,0.139,2.511c0.065,1.151,0.131,2.301,0.196,3.452c0.046,0.823,0.091,1.646,0.138,2.469
			c0.066,1.172,0.133,2.343,0.198,3.515c0.048,0.858,0.094,1.716,0.141,2.574c0.01,0.174,0.02,0.348,0.029,0.516
			c-0.011,0.01-0.015,0.015-0.021,0.017c-0.006,0.003-0.015,0.007-0.02,0.005c-6.125-2.967-12.249-5.934-18.374-8.902
			c-0.043-0.021-0.085-0.047-0.142-0.079c5.602-7.218,11.198-14.429,16.793-21.64C18.964,13.502,18.978,13.509,18.992,13.517z"/>
		<path d="M39.107,9.721c4.055,5.028,8.096,10.04,12.147,15.064c-0.17-0.012-15.02-5.806-15.43-6.013
			C35.834,18.622,38.949,10.024,39.107,9.721z"/>
		<path d="M20.262,12.648c6.076-1.085,12.151-2.17,18.271-3.263c-1.117,3.07-2.219,6.096-3.331,9.152
			c-1.261-0.481-2.501-0.978-3.746-1.462c-1.249-0.485-2.496-0.976-3.743-1.464c-1.241-0.486-2.482-0.973-3.722-1.459
			c-1.245-0.488-2.49-0.977-3.734-1.465C20.258,12.674,20.26,12.661,20.262,12.648z"/>
	</g>
	<path d="M51.704,45.239c-2.093,3.624-4.186,7.247-6.286,10.884c-3.253-1.578-6.488-3.147-9.724-4.717
		c0-0.015,0.001-0.031,0.001-0.046c5.327-2.053,10.654-4.105,15.98-6.158C51.684,45.214,51.694,45.226,51.704,45.239z"/>
	<path d="M23.203,56.183c0.054-0.024,0.107-0.05,0.162-0.071c3.763-1.451,7.526-2.9,11.289-4.354
		c0.128-0.049,0.231-0.046,0.356,0.015c2.968,1.445,5.939,2.885,8.909,4.326c0.053,0.026,0.103,0.057,0.146,0.111
		c-6.952,0-13.903,0-20.855,0C23.208,56.201,23.205,56.192,23.203,56.183z"/>
	<path d="M34.058,51.315c-3.934,1.515-7.823,3.013-11.705,4.509c-0.015-0.014-0.021-0.018-0.025-0.023
		c-0.003-0.005-0.007-0.013-0.005-0.018c1.029-2.832,2.058-5.665,3.087-8.497c0.014-0.038,0.032-0.075,0.058-0.133
		C28.323,48.536,31.169,49.915,34.058,51.315z"/>
	<path d="M21.947,54.808c-0.179-3.193-0.358-6.386-0.54-9.625c1.179,0.571,2.324,1.126,3.481,1.687
		c-0.968,2.66-1.931,5.303-2.893,7.946C21.979,54.813,21.963,54.811,21.947,54.808z"/>
	<path style="fill:#EC08D6;" d="M44.351,44.845c0.012-0.162,0.029-0.261,0.025-0.359c-0.032-0.768-0.066-1.535-0.103-2.303
		c-0.004-0.086,0.004-0.158,0.093-0.193c0.339-0.134,0.679-0.268,1.05-0.414c0.493,1.24,0.978,2.46,1.475,3.708
		c-0.272,0.108-0.519,0.207-0.796,0.318c-0.293-0.733-0.577-1.442-0.883-2.209c-0.101,0.26-0.054,0.465-0.054,0.663
		c0,0.209,0.027,0.418,0.036,0.627c0.009,0.201,0.011,0.402,0.013,0.603c0.002,0.209,0,0.417,0,0.668
		c-0.202,0.08-0.435,0.172-0.669,0.263c-0.109,0.043-0.159-0.04-0.216-0.104c-0.399-0.452-0.796-0.905-1.194-1.357
		c-0.108-0.123-0.218-0.243-0.34-0.379c-0.087,0.124-0.013,0.208,0.017,0.286c0.219,0.561,0.444,1.12,0.667,1.679
		c0.031,0.079,0.055,0.161,0.09,0.265c-0.267,0.105-0.514,0.201-0.786,0.308c-0.494-1.242-0.977-2.456-1.465-3.681
		c0.066-0.039,0.114-0.075,0.167-0.097c0.258-0.106,0.521-0.201,0.777-0.313c0.15-0.065,0.254-0.046,0.363,0.083
		c0.328,0.386,0.667,0.763,1.001,1.144c0.167,0.19,0.332,0.382,0.501,0.571C44.177,44.685,44.242,44.74,44.351,44.845z
		 M42.367,43.898c0.167-0.081,0.202,0.03,0.252,0.087c0.521,0.588,1.038,1.18,1.558,1.77c0.35,0.398,0.223,0.384,0.78,0.163
		c0.116-0.046,0.159-0.123,0.153-0.242c-0.023-0.436-0.044-0.872-0.065-1.308c-0.021-0.453-0.043-0.907-0.06-1.36
		c-0.002-0.06,0.022-0.121,0.034-0.181c0.023-0.004,0.046-0.008,0.068-0.012c0.042,0.079,0.091,0.154,0.124,0.236
		c0.276,0.688,0.549,1.378,0.825,2.067c0.038,0.095,0.084,0.186,0.14,0.308c0.185-0.074,0.349-0.14,0.507-0.203
		c-0.05-0.317-1.242-3.286-1.395-3.464c-0.254,0.103-0.519,0.21-0.784,0.317c-0.087,0.035-0.108,0.105-0.104,0.191
		c0.038,0.811,0.076,1.621,0.111,2.432c0.007,0.162,0.001,0.324,0.001,0.528c-0.078-0.073-0.13-0.115-0.173-0.164
		c-0.209-0.235-0.416-0.471-0.624-0.707c-0.381-0.433-0.759-0.868-1.144-1.296c-0.052-0.058-0.155-0.131-0.21-0.114
		c-0.297,0.09-0.59,0.195-0.869,0.35c0.028,0.09,0.043,0.157,0.069,0.221c0.398,1.006,0.797,2.012,1.198,3.017
		c0.028,0.069,0.074,0.13,0.12,0.21c0.18-0.073,0.337-0.138,0.527-0.215C43.053,45.633,42.712,44.77,42.367,43.898z"/>
	<path style="fill:#EC08D6;" d="M35.323,46.608c-0.1,0-0.194-0.001-0.287,0c-0.329,0.004-0.639,0.083-0.926,0.243
		c-0.512,0.286-0.729,0.76-0.572,1.324c0.062,0.223,0.168,0.442,0.297,0.635c0.258,0.385,0.696,0.53,1.151,0.424
		c0.36-0.084,0.66-0.266,0.908-0.539c0.057-0.063,0.117-0.123,0.209-0.22c0.131,0.253,0.221,0.482,0.287,0.721
		c0.009,0.032-0.022,0.084-0.049,0.114c-0.063,0.072-0.131,0.141-0.205,0.202c-0.448,0.367-0.965,0.551-1.542,0.566
		c-0.569,0.015-1.043-0.199-1.404-0.634c-0.422-0.51-0.63-1.101-0.578-1.77c0.026-0.331,0.143-0.632,0.352-0.887
		c0.488-0.596,1.14-0.866,1.893-0.929c0.165-0.014,0.26,0.045,0.308,0.208c0.044,0.15,0.112,0.293,0.168,0.44
		C35.339,46.518,35.331,46.538,35.323,46.608z M36.07,48.73c-0.106,0.092-0.166,0.155-0.236,0.203
		c-0.158,0.108-0.311,0.23-0.483,0.309c-0.763,0.35-1.445,0.094-1.802-0.665c-0.048-0.102-0.091-0.209-0.121-0.317
		c-0.19-0.676,0.075-1.259,0.708-1.565c0.254-0.123,0.522-0.194,0.804-0.209c0.065-0.004,0.128-0.021,0.205-0.034
		c-0.015-0.075-0.019-0.127-0.035-0.175c-0.101-0.299-0.147-0.324-0.458-0.275c-0.475,0.076-0.907,0.253-1.284,0.554
		c-0.302,0.242-0.507,0.547-0.594,0.93c-0.129,0.562,0.019,1.074,0.289,1.557c0.224,0.401,0.542,0.717,0.997,0.837
		c0.792,0.209,1.477-0.034,2.087-0.546c0.094-0.079,0.112-0.174,0.068-0.282C36.176,48.957,36.131,48.865,36.07,48.73z"/>
	<path style="fill:#EC08D6;" d="M46.619,41.089c0.663-0.23,1.248-0.554,1.899-0.697c0.855-0.187,1.505,0.539,1.24,1.373
		c-0.013,0.041-0.025,0.082-0.045,0.148c0.073,0.034,0.139,0.068,0.208,0.097c0.718,0.302,0.911,1.211,0.351,1.752
		c-0.184,0.178-0.416,0.321-0.65,0.429c-0.436,0.2-0.888,0.362-1.335,0.538c-0.054,0.021-0.115,0.028-0.201,0.049
		C47.6,43.555,47.118,42.342,46.619,41.089z M46.802,41.168c0.04,0.116,0.065,0.198,0.096,0.278c0.117,0.3,0.236,0.6,0.356,0.899
		c0.274,0.688,0.548,1.376,0.825,2.063c0.08,0.199,0.109,0.222,0.258,0.162c0.492-0.199,0.989-0.391,1.467-0.621
		c0.188-0.09,0.36-0.251,0.492-0.417c0.414-0.516,0.011-1.369-0.563-1.441c-0.089-0.011-0.176-0.038-0.282-0.062
		c0.043-0.072,0.063-0.11,0.088-0.144c0.239-0.338,0.192-0.678-0.015-1.003c-0.21-0.33-0.53-0.439-0.907-0.381
		c-0.145,0.022-0.29,0.061-0.428,0.112c-0.335,0.123-0.666,0.257-0.998,0.389C47.07,41.051,46.952,41.104,46.802,41.168z"/>
	<path style="fill:#EC08D6;" d="M39.635,47.345c0.044,0.096,0.078,0.165,0.107,0.237c0.058,0.144,0.112,0.29,0.182,0.47
		c-0.773,0.308-1.529,0.609-2.308,0.919c-0.494-1.248-0.988-2.462-1.471-3.71c0.274-0.109,0.513-0.204,0.776-0.309
		c0.05,0.105,0.094,0.187,0.128,0.273c0.313,0.785,0.625,1.571,0.937,2.357c0.023,0.057,0.044,0.114,0.07,0.169
		c0.075,0.157,0.098,0.17,0.261,0.109c0.285-0.108,0.567-0.224,0.851-0.336C39.313,47.467,39.459,47.412,39.635,47.345z
		 M39.574,47.523c-0.121,0.04-0.212,0.064-0.299,0.099c-0.341,0.134-0.68,0.273-1.021,0.405c-0.179,0.07-0.192,0.061-0.273-0.118
		c-0.025-0.056-0.048-0.113-0.07-0.169c-0.302-0.762-0.604-1.524-0.907-2.286c-0.041-0.103-0.089-0.203-0.144-0.326
		c-0.153,0.055-0.282,0.101-0.41,0.149c-0.089,0.033-0.118,0.099-0.088,0.188c0.016,0.05,0.036,0.098,0.055,0.147
		c0.386,0.973,0.771,1.946,1.159,2.918c0.034,0.085,0.082,0.165,0.12,0.241c0.369-0.081,1.871-0.696,2.041-0.836
		C39.688,47.814,39.638,47.687,39.574,47.523z"/>
	<path style="fill:#EC08D6;" d="M39.35,43.991c0.24-0.096,0.442-0.175,0.641-0.259c0.116-0.049,0.182-0.006,0.224,0.101
		c0.067,0.171,0.135,0.341,0.202,0.511c0.36,0.908,0.721,1.816,1.081,2.724c0.019,0.049,0.034,0.099,0.057,0.146
		c0.052,0.109,0.026,0.184-0.088,0.229c-0.202,0.08-0.403,0.161-0.641,0.256C40.335,46.465,39.85,45.247,39.35,43.991z
		 M41.459,47.312c-0.467-1.171-0.917-2.301-1.364-3.421c-0.257,0.017-0.384,0.071-0.553,0.23c0.442,1.123,0.887,2.255,1.356,3.404
		C41.091,47.452,41.251,47.391,41.459,47.312z"/>
	<path style="fill:#EC08D6;" d="M52.542,42.732c0.003,0.312-0.253,0.562-0.572,0.557c-0.311-0.005-0.547-0.256-0.548-0.583
		c0-0.312,0.254-0.562,0.571-0.562C52.29,42.144,52.539,42.41,52.542,42.732z M51.988,42.279c-0.24-0.001-0.441,0.193-0.441,0.427
		c0,0.239,0.19,0.449,0.416,0.458c0.228,0.01,0.45-0.193,0.457-0.416C52.427,42.503,52.223,42.281,51.988,42.279z"/>
	<path style="fill:#EC08D6;" d="M48.537,43.925c-0.141-0.353-0.271-0.681-0.408-1.023c0.06-0.037,0.106-0.075,0.159-0.096
		c0.251-0.098,0.499-0.207,0.757-0.282c0.378-0.109,0.621,0.03,0.737,0.378c0.07,0.208,0.019,0.375-0.138,0.517
		c-0.032,0.029-0.066,0.057-0.103,0.079C49.233,43.68,48.895,43.786,48.537,43.925z M48.616,43.769
		c0.309-0.135,0.585-0.236,0.843-0.373c0.229-0.121,0.271-0.281,0.185-0.503c-0.083-0.215-0.235-0.319-0.474-0.262
		c-0.243,0.058-0.477,0.159-0.712,0.248c-0.053,0.02-0.096,0.064-0.157,0.107C48.402,43.237,48.498,43.477,48.616,43.769z"/>
	<path style="fill:#EC08D6;" d="M47.541,41.413c0.335-0.123,0.633-0.243,0.938-0.341c0.236-0.076,0.383-0.015,0.5,0.163
		c0.133,0.204,0.147,0.451,0.022,0.613c-0.052,0.068-0.117,0.138-0.192,0.173c-0.244,0.115-0.496,0.214-0.745,0.318
		c-0.09,0.038-0.155,0.002-0.189-0.083C47.767,41.991,47.663,41.724,47.541,41.413z M48.002,42.239
		c0.286-0.128,0.532-0.232,0.771-0.348c0.058-0.028,0.105-0.091,0.141-0.148c0.093-0.145,0.04-0.284-0.035-0.417
		c-0.061-0.107-0.157-0.173-0.28-0.149c-0.306,0.06-0.588,0.184-0.882,0.33C47.813,41.753,47.897,41.969,48.002,42.239z"/>
</g>
</svg>
